<svg id="Group_232" data-name="Group 232" xmlns="http://www.w3.org/2000/svg" width="155.705" height="112.24" viewBox="0 0 155.705 112.24">
  <path id="Path_855" data-name="Path 855" d="M2157.213,824.1H2146.29a2.391,2.391,0,0,0-2.39,2.39v3.22a2.39,2.39,0,0,0,2.39,2.39h10.923a2.39,2.39,0,0,0,2.39-2.39v-3.22A2.39,2.39,0,0,0,2157.213,824.1Z" transform="translate(-2074.229 -802.367)" fill="#444"/>
  <path id="Path_856" data-name="Path 856" d="M2012.335,1695.46l-12.135,5.593v1.24h43.218v-1.24l-12.245-5.593Z" transform="translate(-1944.262 -1590.451)" fill="#10243d"/>
  <rect id="Rectangle_2255" data-name="Rectangle 2255" width="18.846" height="28.062" transform="translate(68.072 76.948)" fill="#10243d"/>
  <path id="Path_857" data-name="Path 857" d="M1741.975,924.69V870.6a4.653,4.653,0,0,0-4.653-4.653H1632.453a4.653,4.653,0,0,0-4.653,4.653V924.69Z" transform="translate(-1607.453 -840.217)" fill="#10243d"/>
  <rect id="Rectangle_2256" data-name="Rectangle 2256" width="43.218" height="1.239" transform="translate(55.938 110.602)" opacity="0.3"/>
  <rect id="Rectangle_2257" data-name="Rectangle 2257" width="18.838" height="6.901" transform="translate(68.072 98.108)" fill="#0d4282" opacity="0.3"/>
  <path id="Path_858" data-name="Path 858" d="M1627.8,1480.57v8.667c0,1.8,1.192,3.265,2.662,3.265h108.852c1.47,0,2.661-1.461,2.661-3.265v-8.667Z" transform="translate(-1607.453 -1396.098)" fill="#426c9f"/>
  <path id="Path_859" data-name="Path 859" d="M2218.04,836.3a1.06,1.06,0,1,1-1.06-1.06A1.06,1.06,0,0,1,2218.04,836.3Z" transform="translate(-2139.366 -812.443)"/>
  <path id="Path_860" data-name="Path 860" d="M1764.59,944.572V892.979a2.494,2.494,0,0,0-2.537-2.448H1658.3a2.494,2.494,0,0,0-2.537,2.448v51.593Z" transform="translate(-1632.741 -862.448)" fill="#fff"/>
  <g id="Group_214" data-name="Group 214" transform="translate(27.525 35.783)">
    <rect id="Rectangle_2258" data-name="Rectangle 2258" width="5.179" height="40.083" transform="translate(24.18 0)" fill="#e6f0ff"/>
    <rect id="Rectangle_2259" data-name="Rectangle 2259" width="5.179" height="27.857" transform="translate(16.949 12.001)" fill="#e6f0ff"/>
    <rect id="Rectangle_2260" data-name="Rectangle 2260" width="5.179" height="31.399" transform="translate(31.517 8.685)" fill="#e6f0ff"/>
    <rect id="Rectangle_2261" data-name="Rectangle 2261" width="5.179" height="32.634" transform="translate(9.717 7.224)" fill="#e6f0ff"/>
    <rect id="Rectangle_2262" data-name="Rectangle 2262" width="5.179" height="22.958" transform="translate(2.485 16.9)" fill="#e6f0ff"/>
    <g id="Group_209" data-name="Group 209" transform="translate(2.485 9.012)">
      <rect id="Rectangle_2263" data-name="Rectangle 2263" width="5.179" height="31.071" transform="translate(21.696 0)" fill="#0d4282"/>
      <rect id="Rectangle_2264" data-name="Rectangle 2264" width="5.179" height="21.437" transform="translate(14.464 9.409)" fill="#0d4282"/>
      <rect id="Rectangle_2265" data-name="Rectangle 2265" width="5.179" height="24.389" transform="translate(29.033 6.683)" fill="#0d4282"/>
      <rect id="Rectangle_2266" data-name="Rectangle 2266" width="5.179" height="25.112" transform="translate(7.232 5.732)" fill="#0d4282"/>
      <rect id="Rectangle_2267" data-name="Rectangle 2267" width="5.179" height="17.667" transform="translate(0 13.178)" fill="#0d4282"/>
    </g>
    <g id="Group_213" data-name="Group 213" transform="translate(0 6.526)">
      <g id="Group_210" data-name="Group 210" transform="translate(0 1.442)">
        <path id="Path_866" data-name="Path 866" d="M1704.087,1087.232l-1.177-.61,3.313-6.393,1.91,1.549,3.876-7.385,4.806,5.215,8.721-19.15,4.886,7.807,8.867-13.787,1.114.717-10,15.542-4.685-7.487-8.527,18.723-4.886-5.3-3.754,7.154-1.9-1.544Z" transform="translate(-1702.91 -1054.48)" fill="#c8deff"/>
      </g>
      <g id="Group_212" data-name="Group 212" transform="translate(33.948 0)">
        <g id="Group_211" data-name="Group 211">
          <path id="Path_867" data-name="Path 867" d="M2061.419,1044.364l-1.2-1.763-2.1-.362,4.169-2.848Z" transform="translate(-2058.12 -1039.39)" fill="#c8deff"/>
        </g>
      </g>
    </g>
  </g>
  <rect id="Rectangle_2268" data-name="Rectangle 2268" width="25.001" height="15.236" transform="translate(69.67 60.63)" fill="#e6f0ff" opacity="0.5"/>
  <rect id="Rectangle_2269" data-name="Rectangle 2269" width="15.832" height="2.066" transform="translate(26.358 32.082)" fill="#c8deff"/>
  <rect id="Rectangle_2270" data-name="Rectangle 2270" width="13.237" height="2.066" transform="translate(26.358 35.871)" fill="#c8deff"/>
  <rect id="Rectangle_2271" data-name="Rectangle 2271" width="7.563" height="2.066" transform="translate(26.358 39.659)" fill="#c8deff"/>
  <rect id="Rectangle_2272" data-name="Rectangle 2272" width="23.233" height="3.432" transform="translate(70.461 71.352)" fill="#0d4282"/>
  <rect id="Rectangle_2273" data-name="Rectangle 2273" width="24.463" height="3.839" transform="translate(102.907 60.175)" fill="#0d4282"/>
  <rect id="Rectangle_2274" data-name="Rectangle 2274" width="16.179" height="3.839" transform="translate(111.191 65.874)" fill="#0d4282"/>
  <rect id="Rectangle_2275" data-name="Rectangle 2275" width="23.451" height="3.839" transform="translate(103.919 71.573)" fill="#0d4282"/>
  <rect id="Rectangle_2276" data-name="Rectangle 2276" width="23.233" height="1.136" transform="translate(70.461 68.234)" fill="#0d4282"/>
  <rect id="Rectangle_2277" data-name="Rectangle 2277" width="23.233" height="1.136" transform="translate(70.461 65.157)" fill="#0d4282"/>
  <rect id="Rectangle_2278" data-name="Rectangle 2278" width="23.233" height="1.136" transform="translate(70.461 62.081)" fill="#0d4282"/>
  <rect id="Rectangle_2279" data-name="Rectangle 2279" width="57.7" height="22.546" transform="translate(69.67 34.792)" fill="#e6f0ff" opacity="0.98"/>
  <path id="Path_880" data-name="Path 880" d="M2201.59,1000.39a20.206,20.206,0,0,0-2.856.071c-6.18.626-11.477,4.636-15.9,9a6.422,6.422,0,0,1-3.318,2.152c-1.6.232-3.1-.814-4.293-1.908-2.088-1.912-4.35-4.337-7.162-4.005-2.012.237-3.536,1.844-5.01,3.233s-3.391,2.73-5.362,2.264c-1.756-.416-3.057-1.852-4.5-2.934-3.251-2.438-7.008-.167-9.293,2.044v8.828h57.7Z" transform="translate(-2074.22 -961.79)" fill="#c8deff"/>
  <path id="Path_881" data-name="Path 881" d="M2201.59,1056.72a20.17,20.17,0,0,0-2.856.071c-6.18.625-11.477,4.636-15.9,9a6.423,6.423,0,0,1-3.318,2.152c-1.6.232-3.1-.814-4.293-1.909-2.088-1.912-4.35-4.337-7.162-4.005-2.012.237-3.536,1.844-5.01,3.233s-3.391,2.73-5.362,2.264c-1.756-.416-3.057-1.852-4.5-2.934-3.251-2.438-7.008-.167-9.293,2.044v3.444h57.7Z" transform="translate(-2074.22 -1012.737)" fill="#0d4282"/>
  <rect id="Rectangle_2280" data-name="Rectangle 2280" width="4.115" height="0.477" transform="translate(72.554 41.787)" fill="#0d4282"/>
  <rect id="Rectangle_2281" data-name="Rectangle 2281" width="3.78" height="0.477" transform="translate(72.554 42.872)" fill="#0d4282"/>
  <rect id="Rectangle_2282" data-name="Rectangle 2282" width="3.26" height="0.477" transform="translate(102.584 39.747) rotate(180)" fill="#0d4282"/>
  <rect id="Rectangle_2283" data-name="Rectangle 2283" width="4.115" height="0.477" transform="translate(102.584 40.832) rotate(180)" fill="#0d4282"/>
  <rect id="Rectangle_2284" data-name="Rectangle 2284" width="4.115" height="0.477" transform="translate(114.873 36.374)" fill="#0d4282"/>
  <rect id="Rectangle_2285" data-name="Rectangle 2285" width="2.773" height="0.477" transform="translate(116.216 37.461)" fill="#0d4282"/>
  <g id="Group_218" data-name="Group 218" transform="translate(76.904 43.347)">
    <rect id="Rectangle_2286" data-name="Rectangle 2286" width="0.073" height="2.812" transform="matrix(0.859, -0.513, 0.513, 0.859, 0, 0.037)" fill="#0d4282"/>
  </g>
  <g id="Group_219" data-name="Group 219" transform="translate(96.561 40.836)">
    <rect id="Rectangle_2287" data-name="Rectangle 2287" width="2.812" height="0.073" transform="matrix(0.513, -0.859, 0.859, 0.513, 0, 2.414)" fill="#0d4282"/>
  </g>
  <g id="Group_220" data-name="Group 220" transform="translate(114.615 38.217)">
    <rect id="Rectangle_2288" data-name="Rectangle 2288" width="2.812" height="0.073" transform="matrix(0.513, -0.859, 0.859, 0.513, 0, 2.414)" fill="#0d4282"/>
  </g>
  <rect id="Rectangle_2289" data-name="Rectangle 2289" width="5.702" height="3.839" transform="translate(97.205 60.175)" fill="#c8deff" opacity="0.98"/>
  <rect id="Rectangle_2290" data-name="Rectangle 2290" width="13.986" height="3.839" transform="translate(97.205 65.874)" fill="#c8deff" opacity="0.98"/>
  <rect id="Rectangle_2291" data-name="Rectangle 2291" width="6.714" height="3.839" transform="translate(97.205 71.573)" fill="#c8deff" opacity="0.98"/>
  <g id="Group_227" data-name="Group 227" transform="translate(6.375 53.063)">
    <path id="Path_903" data-name="Path 903" d="M1621.511,1290.057c.394-.32,3.442,1.017,3.4,1.482a44.688,44.688,0,0,0,2.126,4.978l3.742-2.984h0c.033-.108.388-1.268.405-1.476s.65-.6.944-.543-.251.424-.287.492c-.1.185.279.253.279.253s1.068-.342,1.091-.692.753.61.668.744-1.83,1.537-2.081,1.843c0,0-4.84,5.532-5.185,5.677-.3.127-1.38-1.78-2.4-3.046S1620.279,1291.057,1621.511,1290.057Z" transform="translate(-1607.87 -1276.811)" fill="#f7a491"/>
    <path id="Path_904" data-name="Path 904" d="M1488.607,1699s-.665.649-.681.887-.059,2.79.212,3.028,1.069.407.812.675a7.944,7.944,0,0,1-2.672.1c-.289-.016-.65-2.317-.765-2.655-.166-.491-.57-1.6-.419-1.94a2.88,2.88,0,0,1,.92-.83,4.53,4.53,0,0,0,1.02-1.086Z" transform="translate(-1484.732 -1645.069)" fill="#f48c7f"/>
    <path id="Path_905" data-name="Path 905" d="M1586.524,1731.665s-.6,1.681-.6,1.686c-.044.267-.219.924-.219,1.167,0,.91,4.1-.772,3.183-1.176a.971.971,0,0,1-.372-.637,2.13,2.13,0,0,1,.346-1.075Z" transform="translate(-1575.761 -1676.227)" fill="#f7a491"/>
    <g id="Group_223" data-name="Group 223" transform="translate(1.512 24.13)">
      <path id="Path_906" data-name="Path 906" d="M1597.21,1404.41s.3,3.014.3,3.059c0,4.875.966,14.4.783,15.316-.448,2.235-5.275,13.641-5.275,13.641l-2.608-.312,3.4-13.655-1.251-5.5-1.77-10.865Z" transform="translate(-1581.524 -1404.41)" fill="#0d4282"/>
      <path id="Path_907" data-name="Path 907" d="M1504.363,1411.156l-.495,2.856-1.339,11.757-5.1,11.49s.718,1.672,1.776,1.906l8.116-11.8,5.042-15.1-.177-3.354Z" transform="translate(-1497.43 -1408.489)" fill="#0d4282"/>
    </g>
    <path id="Path_908" data-name="Path 908" d="M1636.663,1254.671l-3.616.369s-.166-2.965-.166-4.379c0-1.716.146-3.926.354-3.878a3.156,3.156,0,0,1,1.831,1.1C1636.678,1250.094,1636.663,1254.671,1636.663,1254.671Z" transform="translate(-1618.422 -1237.716)" fill="#dfb980"/>
    <path id="Path_909" data-name="Path 909" d="M1568.891,1249.273c.075.523,1.466,14.747,1.466,14.747-6.586,3.181-10.219.567-10.219.567s.215-9.988-.043-11.347c-.171-.9-.384-6.876.2-7.043a14.611,14.611,0,0,1,2.54-.54,24.251,24.251,0,0,1,4.452.055A7.062,7.062,0,0,1,1568.891,1249.273Z" transform="translate(-1552.427 -1236.631)" fill="#f4cc8f"/>
    <path id="Path_910" data-name="Path 910" d="M1482.922,1708.37s1.533,4.316,2.133,4.524c.16.055.924.2,1.068.533a1.476,1.476,0,0,1,0,.442h-3.195s-.4-1.9-.564-2.737a12.441,12.441,0,0,1-.752-2.227A4.94,4.94,0,0,1,1482.922,1708.37Z" transform="translate(-1481.604 -1655.19)" fill="#2b2b2b"/>
    <path id="Path_911" data-name="Path 911" d="M1583.27,1750.934l.47-1.484a4.073,4.073,0,0,0,1.48.348c.493-.07,1.456-.348,1.456-.348,1.969.648,3.582.962,3.289,1.484h-6.7Z" transform="translate(-1573.554 -1692.344)" fill="#2b2b2b"/>
    <g id="Group_224" data-name="Group 224" transform="translate(18.31 19.313)">
      <path id="Path_912" data-name="Path 912" d="M1673.626,1357.71a.881.881,0,0,0,.1-.074c-.117-1.393-.1-2.744.341-3.2l-.206-.436c-.506.392-.747,1.434-.653,3.124a2.935,2.935,0,0,0,.067.35C1673.422,1357.635,1673.555,1357.74,1673.626,1357.71Z" transform="translate(-1673.188 -1354)" fill="#f7a491"/>
    </g>
    <path id="Path_913" data-name="Path 913" d="M1595.684,1216.01l-.424,2.8s1.55,3.332,2.475,3.042c.776-.243.3-3.19.3-3.19a8.066,8.066,0,0,1-.3-2.375C1597.865,1215.493,1595.684,1216.01,1595.684,1216.01Z" transform="translate(-1584.398 -1209.735)" fill="#f7a491"/>
    <path id="Path_914" data-name="Path 914" d="M1601.419,1216.287c.127-.792-2.054-.275-2.054-.275l-.035.232a1.3,1.3,0,0,0,.236.39,2.875,2.875,0,0,0,1.906.863A4.365,4.365,0,0,1,1601.419,1216.287Z" transform="translate(-1588.079 -1209.737)" fill="#f47458"/>
    <g id="Group_225" data-name="Group 225" transform="translate(9.183)">
      <path id="Path_915" data-name="Path 915" d="M1594.365,1167.892c-.061-.022-.494,3.187.327,4.07s2.419,1.172,2.992.477c.635-.769.6-4.218-.673-5.126S1594.365,1167.892,1594.365,1167.892Z" transform="translate(-1592.619 -1165.576)" fill="#f7a491"/>
      <path id="Path_916" data-name="Path 916" d="M1581.6,1151.942a3.533,3.533,0,0,0-1.859,1.061c-.448.053-1.056.3-1.685,1.341a2.6,2.6,0,0,0,.7,3.392,2.028,2.028,0,0,1,.887,1.5l.143-.416a2.317,2.317,0,0,0,.113-.979,1.919,1.919,0,0,0-.146-.589c-.216-.464.465-.773.656-1.159.147-.3.154-.978.386-1.47l.277-.375a1.758,1.758,0,0,1,1.263-.357C1582.951,1154.03,1582.861,1151.684,1581.6,1151.942Z" transform="translate(-1577.69 -1151.922)" fill="#2b2b2b"/>
      <path id="Path_917" data-name="Path 917" d="M1597.867,1194.891c.007.392-.171.712-.4.716s-.415-.311-.422-.7.171-.712.4-.716S1597.861,1194.5,1597.867,1194.891Z" transform="translate(-1595.198 -1190.15)" fill="#f7a491"/>
    </g>
    <path id="Path_925" data-name="Path 925" d="M1491.4,1295.633a.42.42,0,0,1,0-.092c.1-.985.915-9.256,1.052-9.608.124-.317,3.792-5.563,3.792-5.563l1.8,2.456-3.527,4.705c-.079.3-1.352,5.882-1.352,5.882s-.261,1.018-.377,1.628c.053.147.106.286.152.4a3.661,3.661,0,0,0,.38.611,4.135,4.135,0,0,1,.45.8c.037.143.105.443.142.622s.091.39.1.487a.976.976,0,0,0,.114.262.157.157,0,0,1-.185.227c-.128-.043-.229-.208-.29-.312-.174-.292-.266-.825-.31-.8s-.2.932-.219,1.034a11.063,11.063,0,0,1-.31,1.344c-.1.192-.239.16-.275.039-.031-.1.114-1.572.114-1.572s.018-.187-.064-.129-.216,1.391-.273,1.586-.187.3-.3.142a5.934,5.934,0,0,1,.1-1.6s.026-.178-.05-.161-.171,1.153-.23,1.251a.149.149,0,0,1-.279-.031,6.959,6.959,0,0,1,.133-1.454s-.01-.1-.058-.067-.2,1-.3,1.086a.1.1,0,0,1-.151,0c-.18-.122.1-1.039.093-1.494a11.246,11.246,0,0,0,.145-1.509C1491.419,1295.769,1491.408,1295.685,1491.4,1295.633Z" transform="translate(-1490.213 -1268.094)" fill="#f8a492"/>
    <path id="Path_926" data-name="Path 926" d="M1514.73,1258.109l3.133,2.1a33.914,33.914,0,0,1,2.714-3.563c1.188-1.172-.433-4.762-1.2-4.559C1517.668,1252.545,1514.73,1258.109,1514.73,1258.109Z" transform="translate(-1511.564 -1242.51)" fill="#dfb980"/>
  </g>
  <g id="Group_230" data-name="Group 230" transform="translate(35.361 0)">
    <g id="Group_228" data-name="Group 228" transform="translate(12.618 9.783)">
      <path id="Path_927" data-name="Path 927" d="M2001.56,701.9l.131.118a.162.162,0,0,0,.227-.006l2.331-2.564a.159.159,0,0,0-.017-.225l-.131-.117a.162.162,0,0,0-.228.006l-2.331,2.564A.159.159,0,0,0,2001.56,701.9Z" transform="translate(-1993.421 -699.062)"/>
      <path id="Path_928" data-name="Path 928" d="M1917.165,706.594c.312-.253,2.721.8,2.69,1.173a35.346,35.346,0,0,0,1.681,3.938l2.959-2.361h0c.026-.085.307-1,.32-1.168s.514-.474.746-.429-.2.336-.226.389c-.077.145.221.2.221.2s.854-.469.873-.745.2-.854.379-.734c.1.062.094.473.065.668.055-.221.133-.471.208-.5.138-.045.207.131.181.217s-.249,1.026-.316,1.131-1.447,1.217-1.646,1.457c0,0-3.827,4.377-4.1,4.492-.239.1-1.091-1.408-1.9-2.409S1916.192,707.386,1917.165,706.594Z" transform="translate(-1916.93 -705.839)" fill="#f7a491"/>
    </g>
    <g id="Group_229" data-name="Group 229">
      <path id="Path_929" data-name="Path 929" d="M2029.315,988.32a16.517,16.517,0,0,1,.062,2.608,2.49,2.49,0,0,1-.092.314,4.094,4.094,0,0,0,.212,1.457l4.481.016c.244,0,.081-.154-.118-.3a9.072,9.072,0,0,0-1.622-.87c-.068-.031-.313-.183-.4-.236a3.132,3.132,0,0,1-.648-.557,5.734,5.734,0,0,1-.375-2.086Z" transform="translate(-2005.905 -950.893)" fill="#f7a491"/>
      <path id="Path_930" data-name="Path 930" d="M2029.653,1019a4.061,4.061,0,0,1-2.552-.069c-.122.359-.352,1.573-.214,1.573,1.124,0,2.075.213,5.295.161.115,0,.1-.4.026-.485A21.8,21.8,0,0,0,2029.653,1019Z" transform="translate(-2003.722 -978.577)"/>
      <path id="Path_931" data-name="Path 931" d="M2082.92,951.342a16.31,16.31,0,0,1,1.138,2.347,2.573,2.573,0,0,1,.048.324,4.1,4.1,0,0,0,.8,1.238l4.084-1.845c.223-.1.01-.174-.23-.22a9.039,9.039,0,0,0-1.836-.118c-.075,0-.361-.036-.465-.048a3.109,3.109,0,0,1-.821-.238c-.443-.186-1.208-1.742-1.208-1.742Z" transform="translate(-2054.438 -917.176)" fill="#f7a491"/>
      <path id="Path_932" data-name="Path 932" d="M1807.638,598.411a3.478,3.478,0,0,0-3.083-1.711c-3.855,0-4.345,4.954-6.8,6.868-.736.573-1.557,1.044-2.257,1.656a3.354,3.354,0,0,0,.185,1.193,5.058,5.058,0,0,0,.6,1.118l1.039-.6-.451,1.312a13.845,13.845,0,0,0,3.362,2.335,12.155,12.155,0,0,0,5.283,1.368,43.735,43.735,0,0,0,1.676-4.3,17.565,17.565,0,0,0,1.224-5.268A8.088,8.088,0,0,0,1807.638,598.411Z" transform="translate(-1794.484 -596.7)"/>
      <path id="Path_933" data-name="Path 933" d="M2097.68,971.32a4.061,4.061,0,0,1-2.35,1c.038.378.333,1.577.458,1.52,1.022-.466,1.977-.668,4.885-2.05.1-.05-.072-.4-.178-.452A21.53,21.53,0,0,0,2097.68,971.32Z" transform="translate(-2065.662 -935.475)"/>
      <path id="Path_934" data-name="Path 934" d="M1910.348,676.49c1.75.594,2.5,5.029,2.5,5.029s-2.747.766-3.45.365c0,0-.8-3.541-1.085-3.417Z" transform="translate(-1896.516 -668.864)" fill="#c8deff"/>
      <path id="Path_935" data-name="Path 935" d="M1867.721,672.51h0a.672.672,0,0,0,.177-.036,4.4,4.4,0,0,1,1.733.375c.673.284,1.079,2.788,1.017,5.51-.025.416-.338,6.827-.371,6.848-.8.516-5.584.768-5.917.329s-.59-8.039-.751-8.306l-.318-4.649A36.6,36.6,0,0,1,1867.721,672.51Z" transform="translate(-1855.798 -665.222)" fill="#f4f7fe"/>
      <path id="Path_936" data-name="Path 936" d="M1889.12,647.08a12.4,12.4,0,0,1,.249,2.249c-.062.636.238,2.686,1.585,2.693s.256-2.606.129-3.229a23.743,23.743,0,0,1-.157-2.553Z" transform="translate(-1879.16 -641.506)" fill="#f7a491"/>
      <path id="Path_937" data-name="Path 937" d="M1890.953,647.2c-.021-.528-.028-.968-.028-.968l-1.805.841s.064.33.128.75A1.575,1.575,0,0,0,1890.953,647.2Z" transform="translate(-1879.16 -641.496)" fill="#f47458"/>
      <path id="Path_938" data-name="Path 938" d="M1872.467,606.453a2.238,2.238,0,0,0-.95,1.222,3,3,0,0,0,1.832,3.516c1.8.521,2.576-1.188,2.206-2.525S1874.38,605.638,1872.467,606.453Z" transform="translate(-1863.167 -605.328)" fill="#f7a491"/>
      <path id="Path_939" data-name="Path 939" d="M1909.665,619.7c-.035.359-.233.634-.443.613s-.35-.328-.314-.687.233-.634.443-.613S1909.7,619.338,1909.665,619.7Z" transform="translate(-1897.052 -616.876)" fill="#f7a491"/>
      <path id="Path_940" data-name="Path 940" d="M1866.436,607.33s-.326,2.408-1.1,2.842-.453,1.5-.453,1.5-.706-2.48-.091-3.277A3.432,3.432,0,0,1,1866.436,607.33Z" transform="translate(-1856.924 -606.314)"/>
      <path id="Path_941" data-name="Path 941" d="M1868.925,637.225c.211.313.21.683,0,.827s-.555,0-.766-.31-.21-.683,0-.827S1868.714,636.91,1868.925,637.225Z" transform="translate(-1860.057 -633.02)" fill="#f7a491"/>
      <path id="Path_943" data-name="Path 943" d="M1784.9,731.119c.021-.058.071-.061.122-.064a12.828,12.828,0,0,0,1.495-.159,1.124,1.124,0,0,0,.239-.069.636.636,0,0,1,.414-.029.854.854,0,0,0,.231.017c.251-.009.963-.276,1.329-.353a.216.216,0,0,0,.167-.167c.318-1.448,1-4.694,1.064-5.757.087-1.359.831-7.5.831-7.5l2.526.619s-.618,4.467-.834,6.662c-.167,1.7-2.012,5.406-2.509,6.454a1.057,1.057,0,0,1-.948.835.308.308,0,0,0-.195.113,1.429,1.429,0,0,1-.307.285.749.749,0,0,0-.209.222c-.1.159-.191.324-.28.489-.059.11-.123.146-.217.123a.2.2,0,0,1-.152-.217.988.988,0,0,1,.134-.5.268.268,0,0,0-.032-.356,1.073,1.073,0,0,0-.195-.2.326.326,0,0,0-.259-.085,4.086,4.086,0,0,1-.543.118l-.15.035-.082.02c-.013,0-.278.041-.369.044-.074,0-.192.011-.293.019a1.586,1.586,0,0,1-.292-.034.355.355,0,0,1-.237-.086c-.028-.024-.054-.05-.042-.092a.094.094,0,0,1,.079-.064,3.407,3.407,0,0,0,.366-.074c-.093,0-.381,0-.474.006a.433.433,0,0,1-.322-.13C1784.924,731.211,1784.884,731.177,1784.9,731.119Z" transform="translate(-1784.899 -705.539)" fill="#f7a491"/>
      <path id="Path_944" data-name="Path 944" d="M1841.715,673.447c-1.237-.224-2.355,5.314-2.355,5.314s2.747.767,3.45.365c0,0,.8-3.541,1.085-3.417Z" transform="translate(-1834.155 -666.106)" fill="#f4f7fe"/>
      <path id="Path_945" data-name="Path 945" d="M1870.808,792.816v1.01l9.5,2,2.358,7.084-1.314-.9.3,10.908-2,.014s-3.462-9.152-2.326-13.755l-10.515.161s-4.765-1.84-2.306-7.389Z" transform="translate(-1856.264 -773.29)" fill="#c8deff"/>
      <path id="Path_946" data-name="Path 946" d="M1937.08,811.59s9.855.066,10.555.6,5.952,13.933,5.952,13.933l-2.291.855s-4.557-7.6-4.8-8.141-2.006-4.5-2.68-4.908S1937.08,811.59,1937.08,811.59Z" transform="translate(-1922.536 -791.053)" fill="#b4d2ff"/>
    </g>
  </g>
  <g id="Group_231" data-name="Group 231" transform="translate(120.211 52.92)">
    <path id="Path_947" data-name="Path 947" d="M2877.29,1702.52a8.414,8.414,0,0,0,.782,2.65,5.088,5.088,0,0,1,.668.884,2.61,2.61,0,0,1-.09,2.02c-.118.257.009.256-.259.339a1.635,1.635,0,0,1-1.968-.929,4.739,4.739,0,0,1-.386-1.707,6.208,6.208,0,0,0-.647-2.744Z" transform="translate(-2856.021 -1649.756)" fill="#f7a491"/>
    <path id="Path_948" data-name="Path 948" d="M2753.828,1712.11a18.96,18.96,0,0,0-.033,2.993c.077.393.506,1.2.31,1.572a.994.994,0,0,1-.421.463l-5.1.082c-.278,0-.095-.175.13-.341a10.3,10.3,0,0,1,1.835-1.021c.077-.037.354-.215.455-.277a3.538,3.538,0,0,0,.73-.648,6.627,6.627,0,0,0,.4-2.4Z" transform="translate(-2741.203 -1658.429)" fill="#f7a491"/>
    <path id="Path_949" data-name="Path 949" d="M2759.654,1392.566a22.225,22.225,0,0,0-.221,6.073c.422,2.4,2.447,24.693,2.447,24.693l2.25.128s.471-9.311.387-10.605a20.126,20.126,0,0,0-.752-3.462l.224-7.517-2.839-9.875Z" transform="translate(-2751.016 -1368.913)" fill="#c8deff"/>
    <path id="Path_950" data-name="Path 950" d="M2772.427,1381.982a16.792,16.792,0,0,1,2.193,4.9c.421,2.219-.31,9.041.5,11.949.439,1.574,2.1,4.006,2.358,6.041s1.246,7.365,1.246,7.365l-2.249.448-5.227-13.31-4.1-12.03-1.05-6.2Z" transform="translate(-2757.176 -1359.1)" fill="#c8deff"/>
    <path id="Path_951" data-name="Path 951" d="M2884.59,1740.456a2.507,2.507,0,0,0,2.466-1.036,2.733,2.733,0,0,1,.234,2.026c-.2.443-.792.43-1.256.447a1.211,1.211,0,0,1-1.114-.686A4.05,4.05,0,0,1,2884.59,1740.456Z" transform="translate(-2864.341 -1683.129)" fill="#101b29"/>
    <path id="Path_952" data-name="Path 952" d="M2747.521,1747.355a4.6,4.6,0,0,0,2.905-.115,2.359,2.359,0,0,1,.233,1.221c-.124.363-.3.445-.456.449-1.233.032-4.515.076-5.455.089a.155.155,0,0,1-.119-.254A24.655,24.655,0,0,1,2747.521,1747.355Z" transform="translate(-2737.723 -1690.202)" fill="#101b29"/>
    <path id="Path_953" data-name="Path 953" d="M2673.278,1300.49c-.094-.2.9-.472.929-.687s-1.3-.094-1.364-.273c-.122-.331,1.447-.223,1.4-.378s-1.66-.347-1.518-.636,1.652.373,1.676.183-1.459-.49-1.477-.9c-.008-.218,2.471.835,2.731.689s-.41-1.106-.209-1.279,1.071,1.833,1.228,1.891,3.559,1.087,4.716,1.258c.1-.392.967-2.547,1.051-2.917.68.384,1.544-.078,2.24.265-.35,1.234-1.136,5.3-1.45,5.482-.957.557-5.987-2.1-6.818-2.571s-1.258-.245-1.8-.366S2673.373,1300.69,2673.278,1300.49Z" transform="translate(-2672.717 -1283.172)" fill="#f7a491"/>
    <path id="Path_954" data-name="Path 954" d="M2769.775,1155.77a4.827,4.827,0,0,1,.167-3.572,3.243,3.243,0,0,1,2.553-1.739c3.06-.363,2.406,2.494,6.683,3.113a9.6,9.6,0,0,1,3.674,1.038c2,1.194,2.76,3.108,1.432,6.228-3.254,7.638-11.04,1-12.228-.35A13.847,13.847,0,0,1,2769.775,1155.77Z" transform="translate(-2760.261 -1150.428)" fill="#2b2b2b"/>
    <path id="Path_955" data-name="Path 955" d="M2773.066,1244.32a4.443,4.443,0,0,1,2.469,1.181c.924,1.005-1.494,9.088-1.662,10.368s1.607,4.822,1.607,4.822-6.034,1.2-7.6.163c0,0-.138-9.891.031-10.8a27.006,27.006,0,0,1,1.9-5C2770.148,1244.686,2773.066,1244.32,2773.066,1244.32Z" transform="translate(-2758.736 -1235.347)" fill="#0d4282"/>
    <path id="Path_956" data-name="Path 956" d="M2794.75,1211.232l.033.185a17.726,17.726,0,0,0,.776,2.931c.328.617-1.121,2.588-2.516,2.348-.415-.072.351-1.81.314-1.995-.071-.353-.167-.833-.264-1.326-.056-.278-.111-.56-.164-.826l-.271-1.37Z" transform="translate(-2781.197 -1205.374)" fill="#f7a491"/>
    <path id="Path_957" data-name="Path 957" d="M2794.782,1211.417c-.022-.117-.034-.185-.034-.185l-2.089-.052.271,1.37c.052.264.108.544.162.821a1.962,1.962,0,0,0,1-.5,2.633,2.633,0,0,0,.756-1.122C2794.821,1211.618,2794.8,1211.5,2794.782,1211.417Z" transform="translate(-2781.197 -1205.374)" fill="#f47458" opacity="0.5"/>
    <path id="Path_958" data-name="Path 958" d="M2781.084,1159.749a2.466,2.466,0,0,1,1.469.915c.618.8,1.282,3.261-.25,4.6s-3.049-.177-3.273-1.784S2778.85,1159.691,2781.084,1159.749Z" transform="translate(-2768.789 -1158.857)" fill="#f7a491"/>
    <path id="Path_959" data-name="Path 959" d="M2774.836,1186.8c.1.388.351.65.568.585s.313-.431.217-.819-.351-.65-.567-.585S2774.739,1186.408,2774.836,1186.8Z" transform="translate(-2765.042 -1182.57)" fill="#f7a491"/>
    <path id="Path_960" data-name="Path 960" d="M2791.47,1159.441s2,2.3,2.944,2.407,1.064,1.353,1.064,1.353-.336-2.869-1.268-3.422A5.512,5.512,0,0,0,2791.47,1159.441Z" transform="translate(-2780.121 -1158.542)" fill="#2b2b2b"/>
    <path id="Path_961" data-name="Path 961" d="M2818.865,1184.6c-.077.416.077.8.344.853s.545-.239.621-.655-.077-.8-.344-.852S2818.941,1184.187,2818.865,1184.6Z" transform="translate(-2804.879 -1180.739)" fill="#f7a491"/>
    <path id="Path_962" data-name="Path 962" d="M2755.228,1312.914l-6.471.946a.357.357,0,0,0-.3.4l1.262,8.633a.356.356,0,0,0,.4.3l6.471-.946a.356.356,0,0,0,.3-.4l-1.263-8.633A.355.355,0,0,0,2755.228,1312.914Z" transform="translate(-2741.214 -1297.381)" fill="#10243d"/>
    <path id="Path_963" data-name="Path 963" d="M2768.833,1312.82a.073.073,0,0,1,.061-.082l2.7-.395a.073.073,0,0,1,.082.061l.041.281-2.842.416Z" transform="translate(-2759.646 -1296.868)" fill="#c9deff"/>
    <path id="Path_964" data-name="Path 964" d="M2779.236,1311.295a.43.43,0,1,0,.364-.488A.431.431,0,0,0,2779.236,1311.295Zm.153-.023a.276.276,0,1,1,.313.233A.275.275,0,0,1,2779.39,1311.272Z" transform="translate(-2769.052 -1295.475)" fill="#c9deff"/>
    <path id="Path_965" data-name="Path 965" d="M2768.868,1316a.074.074,0,0,0-.034.073l.041.281,2.842-.416a.356.356,0,0,1-.3.4l-2.138.313a.356.356,0,0,1-.4-.3l-.041-.281A.071.071,0,0,1,2768.868,1316Z" transform="translate(-2759.647 -1300.122)" fill="#c9deff"/>
    <path id="Path_967" data-name="Path 967" d="M2763.472,1336.05l-2.344.24s.039,1.99,0,2.218c0,0-4.009,1.111-5.685,1.412,0,0-.763-.432-1.071-.569a7.473,7.473,0,0,0-1.322-.312c-.184-.024-.121.177.036.248a1.512,1.512,0,0,1,.681.5,1.27,1.27,0,0,1-.505-.042c-.175-.078-.417-.243-.421-.329s-.044-.293-.1-.281c-.014,0-.034.071-.053.142s-.038.137-.054.2c-.03.122-.063.3-.077.38a5.657,5.657,0,0,0,.1.866c.029.327.122.472.294.555a4.285,4.285,0,0,0,1.008.2,6.777,6.777,0,0,0,1.85-.184c.32-.036,5.425-.542,5.425-.542s2.03-.292,2.164-.641S2763.472,1336.05,2763.472,1336.05Z" transform="translate(-2744.918 -1318.31)" fill="#f7a491"/>
    <path id="Path_968" data-name="Path 968" d="M2826.216,1253.3a3.573,3.573,0,0,1,1.391,1.867c.618,1.44.8,8.627.8,8.627l-2.453-.409-1.247-3.351a6.145,6.145,0,0,1,.636-6.112C2825.689,1253.448,2826.007,1253.164,2826.216,1253.3Z" transform="translate(-2809.7 -1243.437)" fill="#0e396d"/>
  </g>
  <rect id="Rectangle_2292" data-name="Rectangle 2292" width="155.705" height="0.621" transform="translate(0 111.619)"/>
</svg>
