<svg xmlns="http://www.w3.org/2000/svg" width="72.605" height="58.762" viewBox="0 0 72.605 58.762">
  <path id="Path_3941" data-name="Path 3941" d="M57.288,45.942h1.178a11.975,11.975,0,0,1,7.953,3.166,18.268,18.268,0,0,1,5.154,6.7A10.162,10.162,0,0,1,72.6,59.639a5.8,5.8,0,0,1-.515,2.135,7.378,7.378,0,0,1-2.43,2.725,33.247,33.247,0,0,1-7.069,5.3,19.611,19.611,0,0,1-8.247,2.062q-3.976,0-9.278-3.093T38,55.221A30.179,30.179,0,0,1,37.7,50.95q0-8.984,5.744-21.06.736-1.62,2.725-5.007t4.05-6.406a16.092,16.092,0,0,1,2.945-3.608,4.555,4.555,0,0,1,2.062-.442,9.031,9.031,0,0,1,1.841.295,8.876,8.876,0,0,1,2.8,1.325q1.546,1.031,2.283,1.62a4.445,4.445,0,0,1,1.767,3.093v1.031a7.97,7.97,0,0,1-1.031,2.945L62.3,26.208A58.392,58.392,0,0,0,57.288,45.942Zm-37.7,1.325h1.031a12.116,12.116,0,0,1,8.174,3.314A19.2,19.2,0,0,1,34.02,57.43a10.816,10.816,0,0,1,.736,3.535,5.81,5.81,0,0,1-1.178,3.314,20.137,20.137,0,0,1-4.713,4.2l-.442.442q-6.038,4.271-11.487,4.271A16.67,16.67,0,0,1,6.185,68.917,22.128,22.128,0,0,1,0,53.306q0-1.325.515-7.437t5.228-14.8Q6.333,29.89,8.321,26.5t4.124-6.627q2.135-3.24,3.166-3.829a7,7,0,0,1,1.915-.295,7.769,7.769,0,0,1,3.461,1.031A16.185,16.185,0,0,1,24.3,18.991a4.445,4.445,0,0,1,1.767,3.093v1.031a9.026,9.026,0,0,1-1.031,3.093,5.756,5.756,0,0,1-.442,1.178q-1.62,4.124-3.314,9.573A34.773,34.773,0,0,0,19.587,47.268Z" transform="translate(0 -14.426)" fill="#697f85" opacity="0.11"/>
</svg>
