<svg xmlns="http://www.w3.org/2000/svg" width="8.834" height="12.513" viewBox="0 0 8.834 12.513">
  <path id="Subtraction_3" data-name="Subtraction 3" d="M4.416,12.513a.221.221,0,0,1-.168-.083C3.813,11.877,0,6.956,0,4.574A4.5,4.5,0,0,1,4.416,0,4.5,4.5,0,0,1,8.832,4.574c0,2.291-3.528,6.934-4.235,7.842l-.011.015A.221.221,0,0,1,4.416,12.513Zm0-10.165A2.017,2.017,0,0,0,2.438,4.4,2.016,2.016,0,0,0,4.416,6.445,2.016,2.016,0,0,0,6.394,4.4,2.017,2.017,0,0,0,4.416,2.348Z" transform="translate(0.001 0)" fill="#ffce00"/>
</svg>
