<svg xmlns="http://www.w3.org/2000/svg" width="16.041" height="15.517" viewBox="0 0 16.041 15.517">
  <path id="Subtraction_1" data-name="Subtraction 1" d="M10.854,12.513h0l-.121-.016h-.005c-.147-.02-.3-.04-.45-.068a7.777,7.777,0,0,1-2.413-.947A20.219,20.219,0,0,1,4.332,8.841,21,21,0,0,1,1.577,5.9,8.548,8.548,0,0,1,.211,3.45C.16,3.3.121,3.142.085,3c-.02-.078-.04-.155-.06-.231L0,2.356A3.529,3.529,0,0,1,.863,1.07c.25-.263.507-.515.816-.8A.963.963,0,0,1,2.547.022a.681.681,0,0,1,.442.271q.17.23.338.46l.011.015L3.364.8c.439.6.89,1.206,1.347,1.793a1.041,1.041,0,0,1,.226.521,1.053,1.053,0,0,1-.079.563c-.054.147-.124.294-.184.421l-.021.045-.047.1L4.581,4.3c-.087.188-.185.4-.288.6a.157.157,0,0,0,.024.211c.135.141.269.286.4.428l.011.013c.252.272.511.551.781.81A18.867,18.867,0,0,0,7.984,8.431a.2.2,0,0,0,.273,0c.3-.209.621-.422.981-.651a1.094,1.094,0,0,1,.647-.211,1.111,1.111,0,0,1,.147.01.736.736,0,0,1,.244.087C11.243,8.229,12.1,8.733,12.9,9.2a.857.857,0,0,1,.314.957.952.952,0,0,1-.106.271,7.926,7.926,0,0,1-1.362,1.7,4.57,4.57,0,0,1-.5.356Z" transform="translate(3.239 0) rotate(15)" fill="#ffce00"/>
</svg>
